<svg id="Capa_1" enable-background="new 0 0 488.472 488.472" height="512" viewBox="0 0 488.472 488.472" width="512" xmlns="http://www.w3.org/2000/svg"><path d="m161.89 60.91h164.304l26.326 52.621c2.594 5.173 7.871 8.437 13.655 8.437h76.324c8.408 0 15.444 6.842 15.444 15.25v255.942l29.244 29.27c.771-3.328 1.271-6.753 1.271-10.312l-.164-274.929c-.015-25.223-20.572-45.75-45.794-45.75h-66.887l-26.326-52.621c-2.594-5.173-7.871-8.288-13.655-8.288h-183.178c-5.784 0-11.076 3.116-13.655 8.288l-11.735 23.49 22.761 22.761s12.066-24.159 12.065-24.159z"/><path d="m360.302 295.545c3.576-11.467 6.052-23.415 6.052-36.045 0-67.335-54.783-122.118-122.118-122.118-12.63 0-24.578 2.476-36.045 6.052l25.539 25.539c3.49-.406 6.908-1.062 10.506-1.062 50.505 0 91.588 41.083 91.588 91.588 0 3.598-.656 7.016-1.062 10.506.001.001 25.54 25.54 25.54 25.54z"/><path d="m488.471 466.887-466.886-466.886-21.585 21.585 69.927 69.927-24.207.031c-25.208.045-45.72 20.587-45.72 45.794v274.809c0 25.252 20.542 45.794 45.794 45.794h390.563l30.529 30.529 21.585-21.585zm-311.512-268.342 128.233 128.233c-16.195 14.838-37.299 24.311-60.956 24.311-50.505 0-91.588-41.083-91.588-91.588-.001-23.657 9.473-44.761 24.311-60.956zm-131.165 228.868c-8.422 0-15.265-6.842-15.265-15.265v-274.809c0-8.408 6.842-15.25 15.235-15.265l54.649-.074 55.243 55.243c-20.372 21.723-33.539 50.186-33.539 82.258 0 67.335 54.783 122.118 122.118 122.118 32.072 0 60.535-13.167 82.258-33.539l79.333 79.333z"/></svg>